####
#
# OBJ File Generated by Meshlab
#
####
# Object sim_icub3_l_foot_front.obj
#
# Vertices: 40
# Faces: 76
#
####
vn -1.5692763912972369 1.7300432756406676 1.6085185559649420
v -57.1655654907226562 48.4001922607421875 6.0000000000000000
vn -0.2345701772527637 3.2276487916652945 2.7595802081289484
v -36.1054840087890625 50.0000000000000000 6.0000000000000000
vn -1.8816093054607064 1.6952340860967727 -1.8114276158325882
v -57.4224090576171875 47.8497924804687500 1.2360845804214478
vn -0.1664660767968247 3.2152153434712094 -3.3588103515970014
v -36.1054840087890625 49.4919929504394531 0.6687791943550110
vn -3.1278421726327643 0.0772161548636554 2.8664094568237393
v -58.5000000000000000 31.1442165374755859 6.0000000000000000
vn -0.1102440182258602 0.1075641542209789 -6.2780357601290877
v -36.1054840087890625 31.1442165374755859 0.0000000000000000
vn -3.2262318637449905 0.1071356805070675 -3.3277811671977671
v -58.1180343627929688 31.1442165374755859 0.8244295120239258
vn 0.0883001349916803 3.4875755410164819 2.8207216578759819
v -3.7234048843383789 50.0000000000000000 6.0000000000000000
vn -0.4714269039708224 0.0248180541513590 6.2473726373527629
v -36.1054840087890625 31.1442165374755859 6.0000000000000000
vn -0.0252636513611420 0.5065074673534208 6.2253649747368520
v -6.4143953323364258 19.7193489074707031 10.3000001907348633
vn 0.0487196730503566 3.2354367973806801 -3.4133969677682447
v 28.6586723327636719 49.4919929504394531 0.6687791943550110
vn 0.0382360241804220 3.1246497263056798 2.8193570333268942
v 28.6586723327636719 50.0000000000000000 6.0000000000000000
vn -3.2471044649647411 -0.0301566750009782 -3.3560017670726401
v -58.1180343627929688 -23.6690959930419922 0.8244295120239258
vn -3.1318010643453791 -0.0233934666625551 2.8955163130556998
v -58.5000000000000000 -23.6690959930419922 6.0000000000000000
vn -0.1175727540122317 -0.0123210258276332 -6.2808133665301380
v -36.1054840087890625 -23.6690959930419922 -0.0000000000001137
vn 0.0291727553039727 0.1144207351667712 -6.2806268073128582
v 28.6586723327636719 31.1442165374755859 0.0000000000000000
vn -0.5070588315159106 -0.0296008836026651 6.2417559114234882
v -36.1054840087890625 3.7375609874725342 6.0000000000000000
vn -0.5173705802584564 0.0763951182107964 6.2170658380787733
v -11.9020776748657227 14.0993394851684570 10.3000001907348633
vn -0.3036703536184073 -0.1226360518177717 6.2640223637140391
v -36.1054840087890625 -23.6690959930419922 6.0000000000000000
vn -0.1084779903120369 -0.3105898800889553 6.1830370777811972
v -6.1127123832702637 -19.5943889617919922 10.3000001907348633
vn -0.1706717697883959 -3.0253728782084544 2.3238913229155811
v -36.1054840087890625 -50.0000000000000000 6.0000000000000000
vn -0.0987501258405531 -3.4111330554124941 2.4025474371447597
v -3.7234048843383789 -50.0000000000000000 6.0000000000000000
vn -1.7126076066617641 -1.5334739501572332 1.5344675933242025
v -58.1538925170898438 -46.8272705078125000 6.0000000000000000
vn 0.1212383951653788 -3.0654801036537447 -3.7952940012752734
v 28.6586723327636719 -48.6180343627929688 0.0978869646787643
vn 0.2040564627226195 -3.1425861354327935 2.3591661473240704
v 28.6586723327636719 -50.0000000000000000 6.0000000000000000
vn -1.9442573290124097 -1.6446237528313965 -1.9174024385680568
v -57.9470558166503906 -46.4449386596679688 0.9776732921600342
vn -0.2216505268574894 -3.0486708186173863 -3.7519980828496418
v -36.1054840087890625 -48.6180343627929688 0.0978869646787643
vn 1.4803357431104656 1.7596582074765359 1.5193681368343783
v 55.9992752075195312 49.3302764892578125 6.0000000000000000
vn 3.1021509182048108 0.1774917938352611 -3.5937027236208436
v 57.5000000000000000 31.1442165374755859 0.2679491937160492
vn 1.7474926473855408 1.8080739043856193 -1.9569741486037038
v 56.0028724670410156 48.6634712219238281 0.6470900177955627
vn 0.2657128595180918 0.3744468596297609 6.2492373974946274
v 28.6586723327636719 31.1442165374755859 6.0000000000000000
vn 3.3555169236709408 0.0916351420219130 2.5882626050600592
v 58.5000000000000000 3.7375609874725342 6.0000000000000000
vn 3.1167464855593132 -0.0840373248391208 -3.6382876395331447
v 57.5000000000000000 -23.6690959930419922 0.2679491937160492
vn 0.0361872498823172 -0.0190079400345433 -6.2828761671214082
v 28.6586723327636719 -23.6690959930419922 -0.0000000000001137
vn 0.1931424543639406 -0.1509469331847374 6.1796853637058771
v 20.6491279602050781 3.4679532051086426 10.3000001907348633
vn 3.0722082107590767 0.1501072781689448 2.5149498022746726
v 58.5000000000000000 31.1442165374755859 6.0000000000000000
vn 3.1932563104359017 -0.1669070389371988 2.5537552962572105
v 58.5000000000000000 -23.6690959930419922 6.0000000000000000
vn 1.7579830374104692 -1.6835181039620790 -1.8936079295329766
v 57.0716247558593750 -47.5949363708496094 0.5863419175148010
vn 0.2558776129860297 -0.3689745675813317 6.2290088764418368
v 28.6586723327636719 -23.6690959930419922 6.0000000000000000
vn 1.5348450426792415 -1.5374296489395924 1.3848894129270148
v 57.4091567993164062 -48.1174507141113281 6.0000000000000000
# 40 vertices, 0 vertices normals

f 1//1 2//2 3//3
f 4//4 3//3 2//2
f 5//5 1//1 3//3
f 6//6 3//3 4//4
f 7//7 5//5 3//3
f 6//6 7//7 3//3
f 5//5 2//2 1//1
f 8//8 4//4 2//2
f 9//9 2//2 5//5
f 10//10 2//2 9//9
f 10//10 8//8 2//2
f 11//11 6//6 4//4
f 12//12 11//11 4//4
f 8//8 12//12 4//4
f 13//13 5//5 7//7
f 14//14 9//9 5//5
f 13//13 14//14 5//5
f 15//15 7//7 6//6
f 15//15 13//13 7//7
f 16//16 6//6 11//11
f 15//15 6//6 16//16
f 14//14 17//17 9//9
f 18//18 9//9 17//17
f 18//18 10//10 9//9
f 14//14 19//19 17//17
f 20//20 17//17 19//19
f 20//20 18//18 17//17
f 21//21 22//22 19//19
f 20//20 19//19 22//22
f 23//23 21//21 19//19
f 14//14 23//23 19//19
f 24//24 22//22 21//21
f 25//25 20//20 22//22
f 24//24 25//25 22//22
f 26//26 21//21 23//23
f 27//27 21//21 26//26
f 24//24 21//21 27//27
f 13//13 23//23 14//14
f 26//26 23//23 13//13
f 28//28 11//11 12//12
f 29//29 16//16 11//11
f 30//30 11//11 28//28
f 29//29 11//11 30//30
f 31//31 12//12 8//8
f 32//32 12//12 31//31
f 32//32 28//28 12//12
f 31//31 8//8 10//10
f 33//33 16//16 29//29
f 34//34 15//15 16//16
f 33//33 34//34 16//16
f 35//35 31//31 10//10
f 35//35 10//10 18//18
f 35//35 32//32 31//31
f 32//32 36//36 28//28
f 30//30 28//28 36//36
f 29//29 36//36 32//32
f 29//29 30//30 36//36
f 37//37 29//29 32//32
f 37//37 32//32 35//35
f 37//37 33//33 29//29
f 27//27 13//13 15//15
f 27//27 26//26 13//13
f 27//27 15//15 34//34
f 38//38 34//34 33//33
f 24//24 27//27 34//34
f 38//38 24//24 34//34
f 39//39 35//35 18//18
f 39//39 18//18 20//20
f 39//39 37//37 35//35
f 40//40 33//33 37//37
f 38//38 33//33 40//40
f 40//40 37//37 39//39
f 25//25 39//39 20//20
f 40//40 39//39 25//25
f 40//40 25//25 24//24
f 38//38 40//40 24//24
# 76 faces, 0 coords texture

# End of File
