####
#
# OBJ File Generated by Meshlab
#
####
# Object sim_icub3_r_foot_front.obj
#
# Vertices: 39
# Faces: 74
#
####
vn -1.6464703577653002 1.7053085534865624 1.6585938433553848
v -56.6174468994140625 48.9091567993164062 6.0000000000000000
vn -0.0665964637654459 3.1336401828873042 2.9351064167450795
v -36.0741081237792969 50.0000000000000000 6.0000000000000000
vn -1.7059675770290172 1.9033325228779447 -1.8301122110916159
v -56.3497924804687500 48.9224052429199219 1.2360845804214478
vn -0.0844805292482779 3.3205509804279485 -3.2612466963428717
v -36.0741081237792969 49.7362937927246094 1.0083228349685669
vn -3.1137019051155130 0.1835063825394881 2.7946170541490538
v -58.5000000000000000 33.6195945739746094 6.0000000000000000
vn -0.0954952322485508 0.1758466690010403 -6.2744049342852382
v -36.0741081237792969 33.6195945739746094 -0.0000000000012506
vn -3.2175237111680897 0.2261861668138988 -3.2539657993279478
v -58.1180343627929688 33.6195945739746094 0.8244295120239258
vn -0.1574479149128606 0.1488293192324367 6.2723088496743591
v -36.0741081237792969 33.6195945739746094 6.0000000000000000
vn 0.0203804419777968 3.1364009640222936 2.9629004424019105
v 28.7027988433837891 50.0000000000000000 6.0000000000000000
vn 0.1177037326074072 0.2966917876125204 6.2653187432895034
v 28.7027988433837891 33.6195945739746094 6.0000000000000000
vn 0.0665929347432128 0.5803893957821636 6.2278945930120519
v -3.6856548786163330 33.6195945739746094 6.0000000000000000
vn -1.6470220467227839 -1.6363150063526044 1.6030750810090126
v -57.0533485412597656 -48.5124092102050781 6.0000000000000000
vn -0.5081534185318651 -0.0289526857731707 6.2415890713892725
v -36.0741081237792969 2.4391877651214600 6.0000000000000000
vn -0.2696033854349055 -0.1313016888611823 6.2666529074305428
v -36.0741081237792969 -28.7412185668945312 6.0000000000000000
vn -0.0980812707123378 -3.1254774935574625 2.8492609602426389
v -36.0741081237792969 -50.0000000000000000 6.0000000000000000
vn 0.0332166332651156 3.3247061452000368 -3.2888351834132044
v 28.7027988433837891 49.7362937927246094 1.0083228349685669
vn -3.2164295123641802 -0.1573291422115635 -3.2985023013530417
v -58.1180343627929688 -28.7412185668945312 0.8244295120239258
vn -3.1235753635306862 -0.1139280603190960 2.8380281331441548
v -58.5000000000000000 -28.7412185668945312 6.0000000000000000
vn -0.1173108512262660 -0.1238640946905823 -6.2770737644114831
v -36.0741081237792969 -28.7412185668945312 -0.0000000000013642
vn 0.0291963858949803 0.1961260966974824 -6.2763394237918817
v 28.7027988433837891 33.6195945739746094 0.0000000000002274
vn 3.3653208764044020 0.0867566940747257 2.5877068656268856
v 58.5000000000000000 2.4391877651214600 6.0000000000000000
vn 1.5504751968691923 1.8068445737672252 1.6478473154667623
v 55.3272743225097656 49.6538963317871094 6.0000000000000000
vn 3.0451866852492455 0.2587102766235190 2.4437730765060959
v 58.5000000000000000 33.6195945739746094 6.0000000000000000
vn 1.6167207360861171 2.0600465605316969 -1.8898601009590907
v 54.9982261657714844 49.6110649108886719 1.2360845804214478
vn 3.0703724975413595 0.3376392796340089 -3.5152594271119595
v 57.5000000000000000 33.6195945739746094 0.2679491937160492
vn 0.1619675478495565 -0.0063700742359970 6.1901600599658613
v 20.6399345397949219 3.2572524547576904 10.3000001907348633
vn 3.1568493230710382 -0.3000258960032728 2.4682504358902104
v 58.5000000000000000 -28.7412185668945312 6.0000000000000000
vn -0.2605642787462578 0.4603095808834529 6.1583393159196689
v -11.9684534072875977 14.0517387390136719 10.3000001907348633
vn -0.0838929942949023 -0.2874632272926217 6.1884267835986231
v -6.4143953323364258 -19.7193489074707031 10.3000001907348633
vn -0.0885101848027570 -3.5012758285125818 2.8863429376941601
v -3.6856548786163330 -50.0000000000000000 6.0000000000000000
vn 0.0513388765048760 -3.2429993055147683 -3.3525651849306368
v 28.7027988433837891 -49.6180343627929688 0.8244295120239258
vn 0.1336108736626816 -3.2322002001857859 2.8872303299275535
v 28.7027988433837891 -50.0000000000000000 6.0000000000000000
vn -1.7644218894359973 -1.7528655340418249 -1.8073443561922651
v -56.9065895080566406 -48.3656120300292969 1.2360845804214478
vn -0.1404482957420592 -3.2245503268179960 -3.3096510212518608
v -36.0741081237792969 -49.6180343627929688 0.8244295120239258
vn 3.0874817347128261 -0.2656471110810197 -3.5474320149368492
v 57.5000000000000000 -28.7412185668945312 0.2679491937160492
vn 0.0345857776668301 -0.1289340187974131 -6.2799765839106696
v 28.7027988433837891 -28.7412185668945312 0.0000000000011369
vn 1.7022427109808589 -1.8077660808063720 -1.7627344081418672
v 55.6595535278320312 -49.2613372802734375 1.2188266515731812
vn 0.2674428432894000 -0.3045625831744067 6.2385595804257923
v 28.7027988433837891 -28.7412185668945312 6.0000000000000000
vn 1.5356037542239191 -1.7157276494686164 1.5857545395389181
v 55.6694183349609375 -49.5048446655273438 6.0000000000000000
# 39 vertices, 0 vertices normals

f 1//1 2//2 3//3
f 4//4 3//3 2//2
f 5//5 1//1 3//3
f 6//6 3//3 4//4
f 7//7 5//5 3//3
f 6//6 7//7 3//3
f 8//8 2//2 1//1
f 9//9 4//4 2//2
f 10//10 9//9 2//2
f 11//11 10//10 2//2
f 8//8 11//11 2//2
f 12//12 1//1 5//5
f 13//13 8//8 1//1
f 14//14 13//13 1//1
f 15//15 14//14 1//1
f 12//12 15//15 1//1
f 16//16 6//6 4//4
f 16//16 4//4 9//9
f 17//17 5//5 7//7
f 18//18 12//12 5//5
f 17//17 18//18 5//5
f 19//19 7//7 6//6
f 19//19 17//17 7//7
f 20//20 6//6 16//16
f 19//19 6//6 20//20
f 21//21 22//22 9//9
f 16//16 9//9 22//22
f 10//10 21//21 9//9
f 21//21 23//23 22//22
f 24//24 22//22 23//23
f 24//24 16//16 22//22
f 25//25 23//23 21//21
f 25//25 24//24 23//23
f 26//26 21//21 10//10
f 27//27 25//25 21//21
f 27//27 21//21 26//26
f 26//26 10//10 11//11
f 28//28 11//11 8//8
f 26//26 11//11 28//28
f 28//28 8//8 13//13
f 29//29 13//13 14//14
f 29//29 28//28 13//13
f 15//15 30//30 14//14
f 29//29 14//14 30//30
f 31//31 30//30 15//15
f 32//32 29//29 30//30
f 31//31 32//32 30//30
f 33//33 15//15 12//12
f 34//34 15//15 33//33
f 31//31 15//15 34//34
f 17//17 12//12 18//18
f 33//33 12//12 17//17
f 25//25 20//20 16//16
f 25//25 16//16 24//24
f 35//35 20//20 25//25
f 36//36 19//19 20//20
f 35//35 36//36 20//20
f 27//27 35//35 25//25
f 34//34 17//17 19//19
f 34//34 33//33 17//17
f 34//34 19//19 36//36
f 37//37 36//36 35//35
f 31//31 34//34 36//36
f 37//37 31//31 36//36
f 38//38 26//26 28//28
f 38//38 28//28 29//29
f 38//38 27//27 26//26
f 39//39 35//35 27//27
f 37//37 35//35 39//39
f 39//39 27//27 38//38
f 32//32 38//38 29//29
f 39//39 38//38 32//32
f 39//39 32//32 31//31
f 37//37 39//39 31//31
# 74 faces, 0 coords texture

# End of File
