####
#
# OBJ File Generated by Meshlab
#
####
# Object sim_icub3_l_shoulder_3.obj
#
# Vertices: 24
# Faces: 44
#
####
vn -4.6229566973987932 1.2885473628520858 -1.7071301294748760
v -31.2695579528808594 7.8915867805480957 -9.0000000000000000
vn -1.5367623322047150 4.2247071653434345 -2.7260435061981481
v -10.6346559524536133 23.0114459991455078 -18.4799995422363281
vn -2.5919956381357077 0.1573161706327049 -4.4574398456499171
v -15.5118579864501953 1.6017686128616333 -29.5000000000000000
vn -1.5807913689722652 2.1331579533938112 -4.1604232168147322
v -9.9645519256591797 11.9703845977783203 -29.5000000000000000
vn -3.9080171852219174 -2.8922691236511637 -1.9071195281757074
v -26.9216442108154297 -17.7562026977539062 -9.0000000000000000
vn 0.0983638696599568 -2.5323800438896282 -4.1177428665120113
v -1.6744883060455322 -15.5080471038818359 -29.5000000000000000
vn -3.0156590427131960 -3.3480914540594808 -3.3836183741870856
v -19.4002552032470703 -16.3077545166015625 -18.4799995422363281
vn -0.8233367523411080 2.3554147766443454 1.5031290295935422
v -11.8977174758911133 29.6362113952636719 2.7766780853271484
vn 2.7395007593497009 3.5993908189685935 -2.5889703337322003
v 16.4333496093750000 19.3017940521240234 -18.4799995422363281
vn 1.3671254162528959 1.9568754798385966 1.3053779616278827
v 18.9731750488281250 26.4099197387695312 2.4873926639556885
vn -3.1043976158951678 -0.8395111957686899 2.0231551381629793
v -30.8396244049072266 -11.5769443511962891 -0.0379100963473320
vn -2.3921354098092120 1.5995360175200948 1.3740041399312795
v -29.8386402130126953 14.5838432312011719 -0.3086582720279694
vn 1.7792153822258525 1.8701885085653742 -4.3664189426102791
v 12.1258144378662109 9.8091220855712891 -29.5000000000000000
vn 0.6289849387216924 -4.4134600260005756 -3.2762423992526348
v 0.5524844527244568 -21.7374744415283203 -21.5000000000000000
vn 4.4000688073694949 -0.0633087296899062 -1.6858379508406149
v 32.0426940917968750 -3.6508035659790039 -9.0000000000000000
vn 0.6849276979095307 -4.7102146276696280 -0.6129491145318026
v 7.0952010154724121 -32.4756164550781250 -3.0000000000000000
vn 3.3030979239995863 -3.5529992184757084 -0.9545932538345407
v 25.3618946075439453 -21.5020198822021484 -3.0000000000000000
vn 2.4623837743454056 -1.0850518492067238 -4.0477409443353629
v 15.3005161285400391 -2.4490048885345459 -29.5000000000000000
vn -1.7409136428756344 -1.9041188053238618 2.5494311462107331
v -18.9731750488281250 -26.4099197387695312 2.4873926639556885
vn -1.0463544003871021 -3.9063449508839518 0.0605569284779888
v -13.1506261825561523 -30.5331954956054688 -0.5000000000000000
vn -0.0811888812962686 -0.3617259434678594 6.1629715239028657
v 4.5988650321960449 -12.0204486846923828 4.5999999046325684
vn 2.8737134478338038 0.2486102082254702 2.2032390791524308
v 32.1961631774902344 -2.9455516338348389 2.5748839378356934
vn 1.4042489735331609 -2.6825539561898051 2.6123889574793884
v 12.4300603866577148 -29.6362113952636719 2.7083880901336670
vn 3.1845238031929259 -2.0694836950776923 2.2852124075956062
v 27.0793933868408203 -19.0405483245849609 -0.1463077962398529
# 24 vertices, 0 vertices normals

f 1//1 2//2 3//3
f 4//4 3//3 2//2
f 5//5 1//1 3//3
f 6//6 3//3 4//4
f 6//6 7//7 3//3
f 5//5 3//3 7//7
f 8//8 2//2 1//1
f 9//9 4//4 2//2
f 10//10 2//2 8//8
f 10//10 9//9 2//2
f 11//11 1//1 5//5
f 12//12 8//8 1//1
f 11//11 12//12 1//1
f 13//13 6//6 4//4
f 9//9 13//13 4//4
f 6//6 14//14 7//7
f 5//5 7//7 14//14
f 15//15 14//14 6//6
f 16//16 5//5 14//14
f 17//17 14//14 15//15
f 17//17 16//16 14//14
f 13//13 18//18 6//6
f 15//15 6//6 18//18
f 19//19 11//11 5//5
f 16//16 20//20 5//5
f 19//19 5//5 20//20
f 15//15 18//18 13//13
f 15//15 13//13 9//9
f 21//21 8//8 12//12
f 22//22 8//8 21//21
f 22//22 10//10 8//8
f 21//21 12//12 11//11
f 23//23 21//21 11//11
f 19//19 23//23 11//11
f 24//24 22//22 21//21
f 24//24 21//21 23//23
f 22//22 15//15 9//9
f 22//22 9//9 10//10
f 24//24 15//15 22//22
f 17//17 15//15 24//24
f 16//16 23//23 20//20
f 19//19 20//20 23//23
f 24//24 23//23 16//16
f 17//17 24//24 16//16
# 44 faces, 0 coords texture

# End of File
