####
#
# OBJ File Generated by Meshlab
#
####
# Object sim_icub3_l_foot_rear.obj
#
# Vertices: 41
# Faces: 78
#
####
vn -2.0206858857009076 1.4848252172872525 1.8100191931303453
v -57.8302764892578125 47.4992752075195312 6.0000000000000000
vn -0.3235593262414392 3.0747295276026096 2.6540740956890465
v -48.5067901611328125 50.0000000000000000 6.0000000000000000
vn -2.0544340589065810 1.7982151460764582 -1.9018598896108980
v -57.4224090576171875 47.8497924804687500 1.2360845804214478
vn -0.3815033417868308 3.1638365508454953 -3.2480548338625579
v -48.5067901611328125 49.4919929504394531 0.6687791943550110
vn -3.1355191062611905 0.0812701869429092 2.9750980107408096
v -58.5000000000000000 31.1442165374755859 6.0000000000000000
vn -0.3519531825197784 0.0852021742997468 -6.2577466402141075
v -48.5067901611328125 31.1442165374755859 0.0000000000002274
vn -3.5066786530496752 0.0993232165424487 -3.1785355626271050
v -58.3270874023437500 31.1442165374755859 1.1865266561508179
vn -0.1358430492793199 0.1131663406869289 6.2759701351659398
v -48.5067901611328125 31.1442165374755859 6.0000000000000000
vn 0.1570619738639117 3.1099985918608644 2.7440172431687193
v 39.8485183715820312 50.0000000000000000 6.0000000000000000
vn 0.1064098139287798 0.3970790916719019 6.2540556225420447
v 10.3967485427856445 31.1442165374755859 6.0000000000000000
vn 0.0557748059701096 0.7246899794285874 6.1973541772819924
v -19.0550212860107422 31.1442165374755859 6.0000000000000000
vn -2.1947292341144506 -1.3991226959326157 1.9474844396302347
v -58.3746414184570312 -46.1126060485839844 6.0000000000000000
vn -0.3813563737046656 0.0004340540514531 6.2599530193177131
v -48.5067901611328125 3.7375609874725342 6.0000000000000000
vn -0.2578921950572291 -0.1034819422643761 6.2695501734744310
v -48.5067901611328125 -23.6690959930419922 6.0000000000000000
vn -0.4109342702406799 -2.9457345061241087 2.1955948279643489
v -48.5067901611328125 -50.0000000000000000 6.0000000000000000
vn 0.2137032504234559 3.2010145717045297 -3.3370104176299087
v 39.8485183715820312 49.4919929504394531 0.6687791943550110
vn -3.5127399549351108 -0.0154474188316776 -3.2265050826772144
v -58.3270874023437500 -23.6690959930419922 1.1865266561508179
vn -3.1393427662681956 -0.0087667965037773 3.0232337630124761
v -58.5000000000000000 -23.6690959930419922 6.0000000000000000
vn -0.3767809507217466 -0.0122795887667899 -6.2600110780635063
v -48.5067901611328125 -23.6690959930419922 0.0000000000002274
vn 0.1415023965599737 0.1143176813092211 -6.2762704289020377
v 39.8485183715820312 31.1442165374755859 0.0000000000001137
vn 1.7050129736726394 -1.5568973515352249 1.5703972822286414
v 58.1538963317871094 -46.8272705078125000 6.0000000000000000
vn 1.6409445583006068 1.6914925920634101 1.6389686772560057
v 57.3158264160156250 48.2257804870605469 6.0000000000000000
vn 0.4500163599145458 0.1578928745711964 6.2431170627546564
v 39.8485183715820312 3.7375609874725342 6.0000000000000000
vn 3.1318010802627185 -0.0233932090643727 2.8955164765677610
v 58.5000000000000000 -23.6690959930419922 6.0000000000000000
vn 3.1279973108163350 0.0750138030728752 2.8666143582390391
v 58.5000000000000000 31.1442165374755859 6.0000000000000000
vn 1.8806428371361221 1.7140862245319231 -1.8220702572512648
v 57.4224052429199219 47.8497924804687500 1.2360845804214478
vn 3.2422583159206115 0.1151114971838194 -3.3271119341016218
v 58.1180343627929688 31.1442165374755859 0.8244295120239258
vn 3.2576140452154019 -0.0485565930153817 -3.3555403665294561
v 58.1180343627929688 -23.6690959930419922 0.8244295120239258
vn 0.1329185473597147 -0.1412081844404466 6.2744752377420969
v 39.8485183715820312 -23.6690959930419922 6.0000000000000000
vn 0.2549079378044206 -3.0001468239091453 2.2674981385467290
v 39.8485183715820312 -50.0000000000000000 6.0000000000000000
vn 0.3357426495708761 -3.0274881476313724 -3.6892262163541893
v 39.8485183715820312 -48.6180343627929688 0.0978869646787643
vn 1.9463024277389884 -1.6347013928071781 -1.8110941299420236
v 58.1110649108886719 -46.4982261657714844 1.2360845804214478
vn 0.4169762545258583 -0.3225305614225631 6.2076006548340867
v 10.3967485427856445 -23.6690959930419922 6.0000000000000000
vn 0.1101115077312122 -3.1798867863100129 2.4191735717592389
v 10.3967485427856445 -50.0000000000000000 6.0000000000000000
vn 0.1141667792297927 -0.2271980117885846 6.1869782982574986
v -13.4237537384033203 -16.0828113555908203 10.3000001907348633
vn -0.0986760979021152 -3.3462633258076533 2.4094645889246569
v -19.0550212860107422 -50.0000000000000000 6.0000000000000000
vn 0.4647666610400459 0.1740478889482827 6.0978670935288362
v 18.1525859832763672 3.4764933586120605 10.3000001907348633
vn 0.0235379916301901 0.6894995892426373 6.1224654566368280
v -13.2880001068115234 14.0086317062377930 10.3000001907348633
vn -2.2798552716369374 -1.6845498698888428 -1.9230228413608184
v -58.1110610961914062 -46.4982261657714844 1.2360845804214478
vn -0.5155758488039062 -2.9670418981339015 -3.6088505239656081
v -48.5067901611328125 -48.6180343627929688 0.0978869646787643
vn 0.1534880985013158 -0.0249432445646459 -6.2791356983667210
v 39.8485183715820312 -23.6690959930419922 0.0000000000000000
# 41 vertices, 0 vertices normals

f 1//1 2//2 3//3
f 4//4 3//3 2//2
f 5//5 1//1 3//3
f 6//6 3//3 4//4
f 7//7 5//5 3//3
f 6//6 7//7 3//3
f 8//8 2//2 1//1
f 9//9 4//4 2//2
f 10//10 9//9 2//2
f 11//11 10//10 2//2
f 8//8 11//11 2//2
f 12//12 1//1 5//5
f 13//13 8//8 1//1
f 14//14 13//13 1//1
f 15//15 14//14 1//1
f 12//12 15//15 1//1
f 16//16 6//6 4//4
f 16//16 4//4 9//9
f 17//17 5//5 7//7
f 18//18 12//12 5//5
f 17//17 18//18 5//5
f 19//19 7//7 6//6
f 19//19 17//17 7//7
f 20//20 6//6 16//16
f 19//19 6//6 20//20
f 21//21 22//22 9//9
f 16//16 9//9 22//22
f 23//23 21//21 9//9
f 10//10 23//23 9//9
f 24//24 25//25 22//22
f 26//26 22//22 25//25
f 21//21 24//24 22//22
f 26//26 16//16 22//22
f 27//27 25//25 24//24
f 27//27 26//26 25//25
f 28//28 24//24 21//21
f 28//28 27//27 24//24
f 29//29 30//30 21//21
f 31//31 21//21 30//30
f 23//23 29//29 21//21
f 32//32 28//28 21//21
f 32//32 21//21 31//31
f 33//33 34//34 30//30
f 31//31 30//30 34//34
f 29//29 33//33 30//30
f 35//35 34//34 33//33
f 35//35 36//36 34//34
f 31//31 34//34 36//36
f 37//37 33//33 29//29
f 37//37 38//38 33//33
f 35//35 33//33 38//38
f 37//37 29//29 23//23
f 37//37 23//23 10//10
f 37//37 10//10 11//11
f 38//38 11//11 8//8
f 37//37 11//11 38//38
f 38//38 8//8 13//13
f 35//35 13//13 14//14
f 35//35 38//38 13//13
f 15//15 36//36 14//14
f 35//35 14//14 36//36
f 31//31 36//36 15//15
f 39//39 15//15 12//12
f 40//40 15//15 39//39
f 31//31 15//15 40//40
f 17//17 12//12 18//18
f 39//39 12//12 17//17
f 27//27 20//20 16//16
f 27//27 16//16 26//26
f 28//28 20//20 27//27
f 41//41 19//19 20//20
f 28//28 41//41 20//20
f 40//40 17//17 19//19
f 40//40 39//39 17//17
f 40//40 19//19 41//41
f 32//32 41//41 28//28
f 31//31 40//40 41//41
f 32//32 31//31 41//41
# 78 faces, 0 coords texture

# End of File
