####
#
# OBJ File Generated by Meshlab
#
####
# Object sim_icub3_r_shoulder_3.obj
#
# Vertices: 26
# Faces: 48
#
####
vn -2.0812501264199130 2.5852600032702546 0.6847738002031455
v -18.2612190246582031 27.7775611877441406 -0.5000000000000000
vn 2.0310632044805814 3.1989520566026375 0.1031854915472148
v 20.6304168701171875 26.0758209228515625 -3.0000000000000000
vn -1.8679941169739500 3.5715413935214384 -2.9491508404397302
v -11.9950885772705078 22.3257961273193359 -18.4799995422363281
vn -0.3154189996367370 1.7966259642783595 -3.6552002049069325
v 2.6412370204925537 15.1939315795898438 -29.5000000000000000
vn -3.7978657195218131 -0.1213029248340705 -0.0485372259391868
v -31.6923313140869141 -5.9714798927307129 -9.0000000000000000
vn 1.1766810076507184 -1.6946856521164797 -5.1949370931275549
v 6.9450449943542480 -9.0548162460327148 -29.5000000000000000
vn -1.9385266981555540 0.9811557775344147 -4.0592672912210679
v -15.5017156600952148 1.7477531433105469 -29.5000000000000000
vn 1.8585079804929876 2.0157549404904125 4.0906015607751005
v 19.9835376739501953 21.1599197387695312 2.7999999523162842
vn 4.0551112183038560 1.3790768744253206 0.2532200395018174
v 32.4236259460449219 7.3668756484985352 -3.0000000000000000
vn 2.1294786946994333 -0.5540351076771109 1.5995671724525091
v 32.3582496643066406 -3.2262916564941406 2.4873926639556885
vn -2.7020088097467334 -1.1063634611045674 3.8744579681418712
v -20.4513263702392578 -22.9973201751708984 2.7999999523162842
vn -0.6937454221391199 2.4888285941023534 2.7801509385519982
v -14.7335433959960938 27.0839977264404297 2.7999999523162842
vn 2.4504838843257062 -0.5229661825643398 -4.3832218877783236
v 15.3603267669677734 -2.3146677017211914 -29.5000000000000000
vn 2.9962416619836354 2.8311289808899973 -1.8913171128102704
v 23.2475719451904297 10.1076517105102539 -18.4799995422363281
vn -3.5752205934689694 -3.4069205161738783 -1.5663832719889466
v -22.7990379333496094 -22.8093471527099609 -9.0000000000000000
vn -1.4471489716907051 -2.2989253780313064 2.2509476389586198
v -18.9731750488281250 -26.4099197387695312 2.4873926639556885
vn -2.1662489192241838 -1.6271210299590124 -4.4646916478709171
v -12.2198266983032227 -9.6969795227050781 -29.5000000000000000
vn 4.4389642363422572 -2.1001994587722286 -1.8058894884620953
v 27.9230632781982422 -16.1358299255371094 -9.0000000000000000
vn 1.3183305413056638 -3.7879364453496471 -4.3029580695287413
v 8.9419450759887695 -22.6728572845458984 -18.5000000000000000
vn -0.8044305753704707 -4.9582676274698141 -1.9253276357858959
v -3.2113018035888672 -32.0894355773925781 -9.0000000000000000
vn 0.2911142635163755 -2.6607952494267968 -4.1341067568410530
v -1.8207331895828247 -15.4926757812500000 -29.5000000000000000
vn 1.0435468309266795 -2.7098519296581456 3.8954904044763712
v 11.5395603179931641 -29.6317691802978516 2.7999999523162842
vn 2.8961366663595385 -2.0789444410022102 1.9478838358800492
v 25.9538326263427734 -20.7051200866699219 -0.4196323156356812
vn -0.3390734955328653 -4.3147416923008315 1.8267883911235316
v -0.4602635800838470 -33.2037620544433594 -0.2972859442234039
vn 2.4950280929274085 -4.9105139925684398 0.8313773976898036
v 14.1057710647583008 -30.1096286773681641 -0.5000000000000000
vn 2.5450379642985137 -4.4344471024532153 -2.0795988437515391
v 15.2703704833984375 -28.4056034088134766 -9.0000000000000000
# 26 vertices, 0 vertices normals

f 1//1 2//2 3//3
f 4//4 3//3 2//2
f 5//5 1//1 3//3
f 6//6 3//3 4//4
f 7//7 5//5 3//3
f 6//6 7//7 3//3
f 8//8 2//2 1//1
f 9//9 4//4 2//2
f 10//10 2//2 8//8
f 10//10 9//9 2//2
f 11//11 1//1 5//5
f 12//12 8//8 1//1
f 11//11 12//12 1//1
f 13//13 6//6 4//4
f 14//14 4//4 9//9
f 13//13 4//4 14//14
f 15//15 5//5 7//7
f 16//16 11//11 5//5
f 16//16 5//5 15//15
f 17//17 7//7 6//6
f 15//15 7//7 17//17
f 13//13 18//18 6//6
f 19//19 6//6 18//18
f 20//20 6//6 19//19
f 21//21 17//17 6//6
f 21//21 6//6 20//20
f 22//22 8//8 12//12
f 23//23 8//8 22//22
f 23//23 10//10 8//8
f 22//22 12//12 11//11
f 24//24 22//22 11//11
f 16//16 24//24 11//11
f 25//25 23//23 22//22
f 25//25 22//22 24//24
f 18//18 14//14 9//9
f 23//23 18//18 9//9
f 23//23 9//9 10//10
f 13//13 14//14 18//18
f 26//26 19//19 18//18
f 25//25 18//18 23//23
f 26//26 18//18 25//25
f 26//26 20//20 19//19
f 21//21 20//20 17//17
f 15//15 17//17 20//20
f 24//24 15//15 20//20
f 25//25 24//24 20//20
f 26//26 25//25 20//20
f 16//16 15//15 24//24
# 48 faces, 0 coords texture

# End of File
