####
#
# OBJ File Generated by Meshlab
#
####
# Object sim_icub3_r_foot_rear.obj
#
# Vertices: 43
# Faces: 82
#
####
vn -1.6115366639582558 1.6415135927944124 1.4928685581858103
v -56.9483757019042969 48.6173820495605469 6.0000000000000000
vn -0.0943287481350416 3.0779762898141483 2.5248935766926714
v -41.0000839233398438 50.0000000000000000 6.0000000000000000
vn -1.8185314872662943 1.8548471392354904 -2.0555618638997593
v -56.4987792968750000 48.1677780151367188 0.5863419175148010
vn -0.1184561029000813 3.1262340994262061 -3.6511195195890220
v -41.0000839233398438 48.9510650634765625 0.2430166006088257
vn -3.0618198050145824 0.1121928322921781 2.4539947857957172
v -58.5000000000000000 34.0006675720214844 6.0000000000000000
vn -0.0437960934165151 0.0609867203490325 -6.2820993745747744
v -41.0000839233398438 34.0006675720214844 -0.0000000000014779
vn -3.0921700387193556 0.1416267624737287 -3.7047288357428183
v -57.3168601989746094 34.0006675720214844 0.1746328771114349
vn -0.0943287481350416 -3.0779762898141465 2.5248935766926737
v -41.0000839233398438 -50.0000000000000000 6.0000000000000000
vn 0.5770425390256664 2.9084098284987392 2.2112060474223787
v 50.6594619750976562 50.0000000000000000 6.0000000000000000
vn 0.1960772359506911 0.6119383881296612 6.2117666456687139
v -4.3362650871276855 34.0006675720214844 6.0000000000000000
vn -0.8832406375852397 -0.3632964602715731 6.1307524933461401
v -19.1308898925781250 -15.4593744277954102 6.0000000000000000
vn -0.1900858591664851 0.1636980793498564 6.2669252110632403
v -22.6681747436523438 34.0006675720214844 6.0000000000000000
vn 0.0526335930946656 0.1950190079171085 6.2650341026972773
v -22.9997386932373047 0.0093200104311109 6.0000000000000000
vn -1.6124665571045855 -1.5908842389281992 1.4550139324022697
v -56.9483757019042969 -48.6173820495605469 6.0000000000000000
vn 0.7237025409816893 2.9698643292165858 -3.2964311683074019
v 50.6594619750976562 48.9510650634765625 0.2430166006088257
vn -3.1061315714972468 -0.1812447857401140 -3.6654396905398743
v -57.3168601989746094 -34.0006675720214844 0.1746328771114349
vn -3.0499912390961912 -0.1603589071194274 2.4163773375716144
v -58.5000000000000000 -34.0006675720214844 6.0000000000000000
vn -0.0336173849578213 -0.0510551115963674 -6.2824165698550534
v -41.0000839233398438 -34.0006675720214844 -0.0000000000013642
vn 0.4800163476739580 0.0507192731260501 -6.2433697504746251
v 50.6594619750976562 34.0006675720214844 0.0000000000010232
vn 2.0532321355739365 -1.5110358086159343 1.8021944447304821
v 58.1538963317871094 -46.8272705078125000 6.0000000000000000
vn 2.0530694619133047 1.5220687770557799 1.8104314042162799
v 58.1538925170898438 46.8272705078125000 6.0000000000000000
vn 0.5770423003518163 -2.9084099585183640 2.2112062064669833
v 50.6594619750976562 -50.0000000000000000 6.0000000000000000
vn 0.7366580745894235 0.2196432790458348 6.1791635713988162
v 32.3275527954101562 0.0000000000006963 6.0000000000000000
vn 0.6944441014348912 0.9230571446353114 6.0620146060733280
v 14.5969362258911133 17.7728652954101562 6.0000000000000000
vn 3.1380299266864227 -0.0423164047333321 3.0018921460059791
v 58.5000000000000000 -34.0006675720214844 6.0000000000000000
vn 3.1386174750982074 0.0308187354690214 3.0109928115163074
v 58.5000000000000000 34.0006675720214844 6.0000000000000000
vn 2.4369350293724992 1.6433792107734606 -2.0273304338407589
v 58.1110649108886719 46.4982261657714844 1.2360845804214478
vn 3.6052342063213998 0.0477446386647139 -3.2022072169576119
v 58.3270912170410156 34.0006675720214844 1.1865266561508179
vn 3.6139704922565228 -0.0490349105447783 -3.1918460670869555
v 58.3270912170410156 -34.0006675720214844 1.1865266561508179
vn 0.7186764711671281 -2.9775498009480446 -3.2970270042588092
v 50.6594619750976562 -48.9510650634765625 0.2430166006088257
vn 2.4521116946316539 -1.6444407625932784 -2.0148480757043759
v 58.1110649108886719 -46.4982261657714844 1.2360845804214478
vn -0.2146019071730461 -0.5958002003630709 6.2109746352165374
v -4.3362650871276855 -34.0006675720214844 6.0000000000000000
vn 0.1966970075104723 -0.2085705729551411 6.2645489255040383
v 32.3275527954101562 -17.0003337860107422 6.0000000000000000
vn 0.2328852057568138 -0.1991187116494864 6.2056167785141385
v 14.5969352722167969 -17.7728652954101562 6.0000000000000000
vn 0.1930778246261048 -0.1882525591624115 6.2666373685586851
v 13.9956436157226562 -34.0006675720214844 6.0000000000000000
vn -1.8397699585358296 -1.8077888671218667 -2.0060553687984206
v -56.4987792968750000 -48.1677780151367188 0.5863419175148010
vn -0.1087795197283475 -3.1360304016164573 -3.6511375237712151
v -41.0000839233398438 -48.9510650634765625 0.2430166006088257
vn 0.5636179559875256 0.2877774001715542 5.7291024230174035
v 18.3613758087158203 2.7264063358306885 10.3000001907348633
vn -0.2731821631298661 -0.0026561077124396 5.6839496910968208
v -5.6853637695312500 -17.8385601043701172 10.3000001907348633
vn -0.2786450625645108 -0.1300248058295534 5.8309747462348520
v -4.3362650871276855 0.0000000000008953 4.0000000000000000
vn -0.3887602482826635 -0.1003032998708600 5.7875597895221054
v -5.6853637695312500 17.8385601043701172 10.3000001907348633
vn -0.6022110838424317 -0.4719941517675730 6.1792353799211837
v -19.1308898925781250 15.4593744277954102 6.0000000000000000
vn 0.4715932910953612 -0.0409827462384500 -6.2447921872082439
v 50.6594619750976562 -34.0006675720214844 0.0000000000020464
# 43 vertices, 0 vertices normals

f 1//1 2//2 3//3
f 4//4 3//3 2//2
f 5//5 1//1 3//3
f 6//6 3//3 4//4
f 7//7 5//5 3//3
f 6//6 7//7 3//3
f 8//8 2//2 1//1
f 9//9 4//4 2//2
f 10//10 9//9 2//2
f 11//11 2//2 8//8
f 12//12 10//10 2//2
f 13//13 12//12 2//2
f 11//11 13//13 2//2
f 14//14 1//1 5//5
f 14//14 8//8 1//1
f 15//15 6//6 4//4
f 15//15 4//4 9//9
f 16//16 5//5 7//7
f 17//17 14//14 5//5
f 16//16 17//17 5//5
f 18//18 7//7 6//6
f 18//18 16//16 7//7
f 19//19 6//6 15//15
f 18//18 6//6 19//19
f 20//20 21//21 9//9
f 15//15 9//9 21//21
f 22//22 20//20 9//9
f 23//23 22//22 9//9
f 24//24 23//23 9//9
f 10//10 24//24 9//9
f 25//25 26//26 21//21
f 27//27 21//21 26//26
f 20//20 25//25 21//21
f 27//27 15//15 21//21
f 28//28 26//26 25//25
f 28//28 27//27 26//26
f 29//29 25//25 20//20
f 29//29 28//28 25//25
f 30//30 20//20 22//22
f 31//31 29//29 20//20
f 31//31 20//20 30//30
f 32//32 8//8 22//22
f 30//30 22//22 8//8
f 33//33 34//34 22//22
f 35//35 22//22 34//34
f 23//23 33//33 22//22
f 35//35 32//32 22//22
f 36//36 8//8 14//14
f 32//32 11//11 8//8
f 37//37 8//8 36//36
f 30//30 8//8 37//37
f 16//16 14//14 17//17
f 36//36 14//14 16//16
f 38//38 34//34 33//33
f 39//39 35//35 34//34
f 38//38 40//40 34//34
f 39//39 34//34 40//40
f 38//38 33//33 23//23
f 38//38 23//23 24//24
f 41//41 24//24 10//10
f 38//38 24//24 41//41
f 41//41 10//10 12//12
f 13//13 42//42 12//12
f 41//41 12//12 42//42
f 40//40 42//42 13//13
f 40//40 41//41 42//42
f 39//39 13//13 11//11
f 39//39 40//40 13//13
f 39//39 11//11 32//32
f 39//39 32//32 35//35
f 28//28 19//19 15//15
f 28//28 15//15 27//27
f 29//29 19//19 28//28
f 43//43 18//18 19//19
f 29//29 43//43 19//19
f 37//37 16//16 18//18
f 37//37 36//36 16//16
f 37//37 18//18 43//43
f 31//31 43//43 29//29
f 30//30 37//37 43//43
f 31//31 30//30 43//43
f 38//38 41//41 40//40
# 82 faces, 0 coords texture

# End of File
